<svg xmlns="http://www.w3.org/2000/svg" width="48" height="18" viewBox="0 0 48 18">
    <g fill="none" fill-rule="nonzero">
        <g fill="#2A4969">
            <path d="M44.905 2.356V1.5h-1.78l.001.856h-3.07V1.5H38.28v.856H35.25V3.97h7.876v.53h1.779v-.53H48V2.356zM48 6.876V5.237h-7.917c.027-.244.041-.49.043-.737h-1.801a6.199 6.199 0 0 1-.055.737h-2.812v1.64h2.424a.196.196 0 0 1-.019.036c-.562 1.536-1.286 2.283-2.613 2.283v1.755c.36 0 .72-.04 1.07-.122V16.5h1.802V9.863a6.045 6.045 0 0 0 1.44-2.35 9.51 9.51 0 0 0 .2-.624L48 6.876z"/>
            <path d="M47.36 9h-6.532v1.794h3.46l-1.066 1.78H39.75l.002 1.794h3.439v2.882h1.986v-2.882H48v-1.794h-2.773zM28.38 5.092h4.624V3.31H28.38V1.5h-1.802v1.81h-2.27c.066-.402.104-.809.112-1.217h-1.808c-.026.87-.187 1.835-.684 2.415-.196.21-.443.364-.718.447v1.83a3.47 3.47 0 0 0 2.1-1.124 3.79 3.79 0 0 0 .39-.561h2.878v3.556L21.21 8.64v1.784h3.804c-.151 1.185-.418 2.501-.999 3.216-1.202 1.479-2.503 1.792-3.015 1.814v1.797c.838-.026 2.754-.43 4.42-2.476.903-1.112 1.25-2.91 1.415-4.332h1.776v6.808h5.139v-1.647h-3.336v-5.16h3.336V8.668l-5.37-.01V5.091z"/>
        </g>
        <g fill="#32BFA1">
            <path d="M8.972 0C4.05 0 .056 3.994.056 8.916c0 4.921 3.994 8.915 8.916 8.915.506 0 .998-.042 1.49-.126-.084-.14-.154-.282-.224-.422-.029-.085-.07-.155-.099-.24-.014-.07-.042-.126-.07-.196-.127-.408-.183-.731-.253-1.252-.057-.408 3.192-2.193 3.192-2.193-.042.028-1.744.703-2.461.914-.394.112-.858.239-.858.239-.084.028-.183.042-.253.07a1.028 1.028 0 0 1-.506 0 1.07 1.07 0 0 1-.394-.21c-.886-.788-1.73-.915-2.166-.915h-.014c-.098 0-.267.028-.337.056h-.014-.014-.014c-.014.014-.043.014-.057.014-.168 0-.562-.084-.647-.492-.112-.562.45-.633.577-.675.084-.028 1.406-.169 2.531.549.169.112.394.337.506.168.226-.393.535-.422.844-.66.014-.408.056-.465.085-.732l2.503-.9H6.314c-.9 0-.872-1.167-.872-1.167h2.39c.437 0 .788-.098.9-.323l.24-1.125H8.1l-.014.028-.169.689c-.042.084-.169.084-.21 0l-.184-.69-.014-.027h-.534l-.014.028-.169.689c-.042.084-.169.084-.21 0l-.184-.69-.014-.027H6.02v.014l-.183.703c-.042.084-.169.084-.211 0l-.197-.703v-.014h-.436l-.183.717c-.042.084-.168.084-.21 0l-.24-.732h-.337a.252.252 0 0 1-.253-.253V6.623s-.24-3.248 3.178-3.248h4.205s2.671-.267 2.671 2.981v2.728s-.056 1.07.816 2.124l1.997 2.278a8.84 8.84 0 0 0 1.252-4.57C17.887 3.994 13.893 0 8.971 0z"/>
            <path d="M5.245 4.88v.717c0 .084-.07.169-.168.169h-.422A.166.166 0 0 1 4.5 5.54c.098-.31.295-.577.45-.774.112-.112.295-.042.295.113zM12.22 5.414v1.013s0 .703-.703.703-.703-.703-.703-.703V5.414c0-.548.422-.703.703-.703.267.014.703.197.703.703z"/>
        </g>
    </g>
</svg>
